<?xml version="1.0" standalone="no"?>
<!DOCTYPE svg PUBLIC "-//W3C//DTD SVG 20010904//EN"
 "http://www.w3.org/TR/2001/REC-SVG-20010904/DTD/svg10.dtd">
<svg version="1.0" xmlns="http://www.w3.org/2000/svg"
 width="227.000000pt" height="222.000000pt" viewBox="0 0 227.000000 222.000000"
 preserveAspectRatio="xMidYMid meet">
<metadata>
Created by potrace 1.10, written by Peter Selinger 2001-2011
</metadata>
<g transform="translate(0.000000,222.000000) scale(0.100000,-0.100000)"
fill="#000000" stroke="none">
<path d="M724 2195 c-121 -26 -259 -93 -364 -176 -197 -155 -333 -398 -345
-614 l-5 -80 34 130 c40 154 69 222 141 330 124 186 321 325 533 376 48 12
107 27 132 34 l45 13 -55 0 c-30 0 -82 -6 -116 -13z"/>
<path d="M990 2196 c25 -7 85 -23 134 -35 255 -62 481 -246 596 -485 129 -268
117 -562 -32 -823 -35 -60 -48 -93 -44 -108 6 -22 83 -95 425 -402 134 -121
181 -173 181 -202 0 -26 -49 -88 -85 -107 -53 -28 -18 -56 -585 460 -108 98
-104 97 -197 43 -242 -141 -472 -170 -728 -90 -234 73 -444 264 -550 499 -15
32 -42 118 -60 189 -32 126 -33 128 -34 74 -2 -118 70 -313 163 -443 51 -71
170 -188 238 -235 73 -49 204 -108 293 -132 105 -28 307 -31 409 -6 99 25 208
71 285 121 l67 43 105 -95 c57 -52 193 -175 301 -273 l198 -179 61 0 c56 0 64
3 95 34 30 30 34 40 34 89 0 31 -3 62 -6 71 -3 9 -124 123 -268 253 -143 131
-276 252 -293 268 l-33 30 40 59 c108 162 160 404 131 604 -42 284 -222 546
-473 686 -97 54 -239 98 -333 102 l-80 4 45 -14z"/>
<path d="M775 2099 c-310 -61 -538 -264 -633 -563 -22 -72 -25 -99 -26 -236
-1 -176 10 -230 75 -365 144 -300 442 -473 782 -452 129 8 199 27 312 82 166
82 280 195 360 360 67 136 88 240 82 400 -6 156 -21 218 -87 350 -100 202
-282 348 -505 410 -72 19 -289 28 -360 14z m350 -43 c33 -9 101 -36 150 -61
271 -133 425 -387 425 -700 0 -311 -155 -567 -425 -700 -132 -66 -195 -80
-355 -80 -161 0 -223 14 -360 82 -81 39 -109 60 -191 142 -82 82 -103 110
-142 191 -69 140 -82 198 -82 370 0 124 4 156 24 220 89 286 303 484 591 545
84 18 283 13 365 -9z"/>
</g>
</svg>
